<?xml version="1.0" encoding="iso-8859-1"?>
<!-- Generator: Adobe Illustrator 19.0.0, SVG Export Plug-In . SVG Version: 6.00 Build 0)  -->
<svg version="1.1" id="Layer_1" xmlns="http://www.w3.org/2000/svg" xmlns:xlink="http://www.w3.org/1999/xlink" x="0px" y="0px"
	 viewBox="0 0 512 512" style="enable-background:new 0 0 512 512;" xml:space="preserve">
<g>
	<path style="fill:#707384;" d="M427.797,500.009l-19.903-51.88c-1.458,2.125-3.501,3.882-6.02,4.989l0,0
		c-3.601,1.582-7.488,1.55-10.879,0.243l20.323,52.974c1.289,3.356,4.412,5.478,7.786,5.653c1.196,0.062,2.423-0.116,3.616-0.572
		C427.268,509.667,429.544,504.563,427.797,500.009z"/>
	<polygon style="fill:#707384;" points="180.146,326.621 172.56,344.276 247.172,344.276 247.172,326.621 	"/>
	<polygon style="fill:#707384;" points="264.827,326.621 264.827,344.276 339.439,344.276 331.853,326.621 	"/>
</g>
<path style="fill:#BEC8DC;" d="M401.872,453.118L401.872,453.118c2.518-1.107,4.562-2.863,6.02-4.989
	c2.495-3.636,3.267-8.359,1.714-12.801L291.31,114.759l10.051,27.24c-8.065,13.399-21.86,22.911-38.02,25.16l68.512,159.463
	l7.585,17.655l43.45,101.133c1.547,3.816,4.553,6.582,8.104,7.951C394.384,454.668,398.273,454.7,401.872,453.118z"/>
<path style="fill:#5B5C6C;" d="M264.827,317.793c0-4.875-3.953-8.828-8.828-8.828c-4.875,0-8.828,3.953-8.828,8.828v8.828v17.655
	v8.828c0,4.875,3.953,8.828,8.828,8.828c4.875,0,8.828-3.953,8.828-8.828v-8.828v-17.655V317.793z"/>
<path style="fill:#78B9C8;" d="M264.827,80.561V61.793h-17.655v18.767c2.822-0.726,5.78-1.112,8.828-1.112
	S262.006,79.834,264.827,80.561z"/>
<path style="fill:#707384;" d="M110.127,453.118L110.127,453.118c-2.518-1.107-4.562-2.863-6.02-4.989l-19.903,51.88
	c-1.749,4.554,0.527,9.658,5.077,11.407c1.193,0.456,2.42,0.633,3.616,0.572c3.374-0.175,6.497-2.297,7.786-5.653l20.323-52.974
	C117.615,454.668,113.727,454.7,110.127,453.118z"/>
<path style="fill:#BEC8DC;" d="M248.657,167.157c-16.16-2.248-29.955-11.759-38.02-25.16l10.052-27.239L102.393,435.328
	c-1.554,4.442-0.781,9.165,1.714,12.801c1.458,2.125,3.501,3.882,6.02,4.989l0,0c3.601,1.582,7.488,1.55,10.879,0.243
	c3.551-1.368,6.557-4.136,8.104-7.951l43.45-101.133l7.585-17.655L248.657,167.157z"/>
<g>
	<path style="fill:#A1A8BB;" d="M248.657,167.157C248.658,167.157,248.658,167.157,248.657,167.157L256,150.069
		c-19.501,0-35.31-15.809-35.31-35.31l-10.051,27.24C218.702,155.398,232.498,164.909,248.657,167.157z"/>
	<path style="fill:#A1A8BB;" d="M256,150.069l7.341,17.088l0,0c16.16-2.248,29.955-11.759,38.02-25.16l-10.051-27.239
		C291.31,134.26,275.501,150.069,256,150.069z"/>
</g>
<g>
	<path style="fill:#A0DCF0;" d="M256,150.069c19.501,0,35.31-15.809,35.31-35.31c0-16.454-11.253-30.279-26.483-34.198
		c-2.822-0.726-5.78-1.112-8.828-1.112s-6.006,0.386-8.828,1.112c-15.23,3.919-26.483,17.745-26.483,34.198
		C220.689,134.26,236.498,150.069,256,150.069z M256,97.103c9.751,0,17.655,7.904,17.655,17.655s-7.904,17.655-17.655,17.655
		s-17.655-7.904-17.655-17.655S246.248,97.103,256,97.103z"/>
	<path style="fill:#A0DCF0;" d="M273.655,52.966V8.828c0-4.875-3.953-8.828-8.828-8.828h-17.655c-4.875,0-8.828,3.953-8.828,8.828
		v44.138c0,4.875,3.953,8.828,8.828,8.828h17.655C269.702,61.793,273.655,57.841,273.655,52.966z"/>
</g>
<circle style="fill:#78B9C8;" cx="256" cy="114.759" r="17.655"/>
<g>
</g>
<g>
</g>
<g>
</g>
<g>
</g>
<g>
</g>
<g>
</g>
<g>
</g>
<g>
</g>
<g>
</g>
<g>
</g>
<g>
</g>
<g>
</g>
<g>
</g>
<g>
</g>
<g>
</g>
</svg>
