<?xml version="1.0" encoding="iso-8859-1"?>
<!-- Generator: Adobe Illustrator 19.0.0, SVG Export Plug-In . SVG Version: 6.00 Build 0)  -->
<svg version="1.1" id="Layer_1" xmlns="http://www.w3.org/2000/svg" xmlns:xlink="http://www.w3.org/1999/xlink" x="0px" y="0px"
	 viewBox="0 0 512 512" style="enable-background:new 0 0 512 512;" xml:space="preserve">
<path style="fill:#E4EAF6;" d="M406.069,105.931c-14.626,0-26.483-11.857-26.483-26.483V0H141.241
	c-14.626,0-26.483,11.857-26.483,26.483v61.793h220.69c9.751,0,17.655,7.905,17.655,17.655v123.586
	c0,9.75-7.904,17.655-17.655,17.655h-220.69v238.345c0,14.626,11.857,26.483,26.483,26.483h317.793
	c14.626,0,26.483-11.857,26.483-26.483V105.931H406.069z M247.172,450.207h-8.828c-14.603,0-26.483-11.88-26.483-26.483v-26.483
	c0-4.871-3.961-8.828-8.828-8.828c-4.875,0-8.828-3.948-8.828-8.828c0-4.879,3.953-8.828,8.828-8.828
	c4.866,0,8.828-3.957,8.828-8.828v-26.483c0-14.603,11.88-26.483,26.483-26.483h8.828c4.875,0,8.828,3.948,8.828,8.828
	c0,4.879-3.953,8.828-8.828,8.828h-8.828c-4.866,0-8.828,3.957-8.828,8.828v26.483c0,6.776-2.56,12.966-6.759,17.655
	c4.199,4.69,6.759,10.879,6.759,17.655v26.483c0,4.871,3.961,8.828,8.828,8.828h8.828c4.875,0,8.828,3.948,8.828,8.828
	C256,446.259,252.047,450.207,247.172,450.207z M271.095,421.164c-0.884,0.793-1.854,1.414-2.914,1.854s-2.207,0.706-3.353,0.706
	c-1.151,0-2.297-0.267-3.358-0.707c-1.056-0.439-2.03-1.06-2.91-1.854c-1.681-1.681-2.56-3.887-2.56-6.268
	c0-2.293,0.97-4.595,2.56-6.268c2.03-2.035,5.117-3,8.03-2.388c0.53,0.095,1.06,0.267,1.59,0.534c0.53,0.172,1.06,0.439,1.59,0.793
	c0.439,0.267,0.879,0.707,1.323,1.06c1.587,1.673,2.56,3.975,2.56,6.268C273.655,417.276,272.771,419.482,271.095,421.164z
	 M306.406,421.164c-0.884,0.793-1.854,1.414-2.914,1.854c-1.06,0.44-2.207,0.706-3.353,0.706c-1.151,0-2.297-0.267-3.358-0.707
	c-1.056-0.439-2.03-1.06-2.91-1.854c-1.681-1.681-2.56-3.887-2.56-6.268c0-2.293,0.97-4.595,2.56-6.268
	c0.879-0.793,1.854-1.414,2.91-1.854c2.121-0.974,4.59-0.974,6.711,0c1.146,0.439,2.03,1.06,2.914,1.854
	c1.587,1.673,2.56,3.975,2.56,6.268C308.966,417.276,308.082,419.482,306.406,421.164z M335.448,423.724
	c-2.383,0-4.59-0.888-6.268-2.56c-1.681-1.681-2.56-3.887-2.56-6.268c0-2.293,0.97-4.595,2.56-6.268
	c0.879-0.793,1.854-1.414,2.91-1.854c2.121-0.974,4.59-0.974,6.711,0c1.06,0.439,2.03,1.06,2.914,1.854
	c1.587,1.673,2.56,3.975,2.56,6.268c0,2.379-0.884,4.586-2.56,6.268C340.039,422.836,337.832,423.724,335.448,423.724z
	 M397.241,388.414c-4.866,0-8.828,3.957-8.828,8.828v26.483c0,14.603-11.88,26.483-26.483,26.483h-8.828
	c-4.875,0-8.828-3.948-8.828-8.828c0-4.879,3.953-8.828,8.828-8.828h8.828c4.866,0,8.828-3.957,8.828-8.828v-26.483
	c0-6.776,2.56-12.966,6.759-17.655c-4.199-4.69-6.759-10.879-6.759-17.655v-26.483c0-4.871-3.961-8.828-8.828-8.828h-8.828
	c-4.875,0-8.828-3.948-8.828-8.828c0-4.879,3.953-8.828,8.828-8.828h8.828c14.603,0,26.483,11.88,26.483,26.483v26.483
	c0,4.871,3.961,8.828,8.828,8.828c4.875,0,8.828,3.948,8.828,8.828C406.069,384.466,402.116,388.414,397.241,388.414z"/>
<path style="fill:#D2DCF0;" d="M406.069,105.931h79.448L379.586,0v79.448C379.586,94.074,391.443,105.931,406.069,105.931z"/>
<path style="fill:#6EAADC;" d="M353.103,229.517V105.931c0-9.75-7.904-17.655-17.655-17.655h-220.69H44.138
	c-9.751,0-17.655,7.905-17.655,17.655v123.586c0,9.75,7.904,17.655,17.655,17.655h70.621h220.69
	C345.199,247.172,353.103,239.267,353.103,229.517z M97.103,194.207h8.828c4.983,0,9.621-2.094,13.056-5.913
	c3.263-3.604,8.85-3.896,12.466-0.647c3.62,3.267,3.914,8.853,0.647,12.474c-6.729,7.456-16.267,11.741-26.168,11.741h-8.828
	c-19.47,0-35.31-15.837-35.31-35.31v-17.655c0-19.474,15.84-35.31,35.31-35.31h8.828c9.901,0,19.439,4.285,26.168,11.742
	c3.267,3.62,2.974,9.207-0.647,12.474c-3.625,3.25-9.212,2.966-12.466-0.647c-3.435-3.82-8.073-5.914-13.056-5.914h-8.828
	c-9.737,0-17.655,7.923-17.655,17.655v17.655C79.448,186.284,87.367,194.207,97.103,194.207z M203.034,211.862h-44.138
	c-4.875,0-8.828-3.948-8.828-8.828s3.953-8.828,8.828-8.828h44.138c4.866,0,8.828-3.957,8.828-8.828
	c0-4.871-3.961-8.828-8.828-8.828h-26.483c-14.603,0-26.483-11.88-26.483-26.483s11.88-26.483,26.483-26.483h35.31
	c4.875,0,8.828,3.948,8.828,8.828c0,4.879-3.953,8.828-8.828,8.828h-35.31c-4.866,0-8.828,3.957-8.828,8.828
	s3.961,8.828,8.828,8.828h26.483c14.603,0,26.483,11.88,26.483,26.483S217.638,211.862,203.034,211.862z M291.31,211.862h-44.138
	c-4.875,0-8.828-3.948-8.828-8.828s3.953-8.828,8.828-8.828h44.138c4.866,0,8.828-3.957,8.828-8.828
	c0-4.871-3.961-8.828-8.828-8.828h-26.483c-14.603,0-26.483-11.88-26.483-26.483s11.88-26.483,26.483-26.483h35.31
	c4.875,0,8.828,3.948,8.828,8.828c0,4.879-3.953,8.828-8.828,8.828h-35.31c-4.866,0-8.828,3.957-8.828,8.828
	s3.961,8.828,8.828,8.828h26.483c14.603,0,26.483,11.88,26.483,26.483S305.913,211.862,291.31,211.862z"/>
<g>
	<path style="fill:#FFFFFF;" d="M203.034,158.897h-26.483c-4.866,0-8.828-3.957-8.828-8.828s3.961-8.828,8.828-8.828h35.31
		c4.875,0,8.828-3.948,8.828-8.828c0-4.879-3.953-8.828-8.828-8.828h-35.31c-14.603,0-26.483,11.88-26.483,26.483
		s11.88,26.483,26.483,26.483h26.483c4.866,0,8.828,3.957,8.828,8.828c0,4.871-3.961,8.828-8.828,8.828h-44.138
		c-4.875,0-8.828,3.948-8.828,8.828s3.953,8.828,8.828,8.828h44.138c14.603,0,26.483-11.88,26.483-26.483
		S217.638,158.897,203.034,158.897z"/>
	<path style="fill:#FFFFFF;" d="M291.31,158.897h-26.483c-4.866,0-8.828-3.957-8.828-8.828s3.961-8.828,8.828-8.828h35.31
		c4.875,0,8.828-3.948,8.828-8.828c0-4.879-3.953-8.828-8.828-8.828h-35.31c-14.603,0-26.483,11.88-26.483,26.483
		s11.88,26.483,26.483,26.483h26.483c4.866,0,8.828,3.957,8.828,8.828c0,4.871-3.961,8.828-8.828,8.828h-44.138
		c-4.875,0-8.828,3.948-8.828,8.828s3.953,8.828,8.828,8.828h44.138c14.603,0,26.483-11.88,26.483-26.483
		S305.913,158.897,291.31,158.897z"/>
	<path style="fill:#FFFFFF;" d="M97.103,141.241h8.828c4.983,0,9.621,2.094,13.056,5.913c3.254,3.612,8.841,3.896,12.466,0.647
		c3.62-3.267,3.914-8.853,0.647-12.474c-6.729-7.456-16.267-11.741-26.168-11.741h-8.828c-19.47,0-35.31,15.837-35.31,35.31v17.655
		c0,19.474,15.84,35.31,35.31,35.31h8.828c9.901,0,19.439-4.285,26.168-11.742c3.267-3.62,2.974-9.207-0.647-12.474
		c-3.616-3.25-9.203-2.957-12.466,0.647c-3.435,3.82-8.073,5.915-13.056,5.915h-8.828c-9.737,0-17.655-7.923-17.655-17.655v-17.655
		C79.448,149.164,87.367,141.241,97.103,141.241z"/>
</g>
<g>
	<path style="fill:#6EAADC;" d="M247.172,432.552h-8.828c-4.866,0-8.828-3.957-8.828-8.828v-26.483
		c0-6.776-2.56-12.966-6.759-17.655c4.199-4.69,6.759-10.879,6.759-17.655v-26.483c0-4.871,3.961-8.828,8.828-8.828h8.828
		c4.875,0,8.828-3.948,8.828-8.828c0-4.879-3.953-8.828-8.828-8.828h-8.828c-14.603,0-26.483,11.88-26.483,26.483v26.483
		c0,4.871-3.961,8.828-8.828,8.828c-4.875,0-8.828,3.948-8.828,8.828c0,4.879,3.953,8.828,8.828,8.828
		c4.866,0,8.828,3.957,8.828,8.828v26.483c0,14.603,11.88,26.483,26.483,26.483h8.828c4.875,0,8.828-3.948,8.828-8.828
		C256,436.5,252.047,432.552,247.172,432.552z"/>
	<path style="fill:#6EAADC;" d="M397.241,370.759c-4.866,0-8.828-3.957-8.828-8.828v-26.483c0-14.603-11.88-26.483-26.483-26.483
		h-8.828c-4.875,0-8.828,3.948-8.828,8.828c0,4.879,3.953,8.828,8.828,8.828h8.828c4.866,0,8.828,3.957,8.828,8.828v26.483
		c0,6.776,2.56,12.966,6.759,17.655c-4.199,4.69-6.759,10.879-6.759,17.655v26.483c0,4.871-3.961,8.828-8.828,8.828h-8.828
		c-4.875,0-8.828,3.948-8.828,8.828c0,4.879,3.953,8.828,8.828,8.828h8.828c14.603,0,26.483-11.88,26.483-26.483v-26.483
		c0-4.871,3.961-8.828,8.828-8.828c4.875,0,8.828-3.948,8.828-8.828C406.069,374.707,402.116,370.759,397.241,370.759z"/>
	<path style="fill:#6EAADC;" d="M269.771,407.569c-0.53-0.353-1.06-0.621-1.59-0.793c-0.53-0.267-1.06-0.439-1.59-0.534
		c-2.914-0.612-6.001,0.353-8.03,2.388c-1.59,1.673-2.56,3.975-2.56,6.268c0,2.379,0.879,4.586,2.56,6.268
		c0.879,0.793,1.854,1.414,2.91,1.854c1.06,0.439,2.207,0.707,3.358,0.707c1.146,0,2.293-0.267,3.353-0.707
		c1.06-0.44,2.03-1.06,2.914-1.854c1.677-1.681,2.56-3.887,2.56-6.268c0-2.293-0.974-4.595-2.56-6.268
		C270.65,408.276,270.211,407.837,269.771,407.569z"/>
	<path style="fill:#6EAADC;" d="M303.491,406.776c-2.121-0.974-4.59-0.974-6.711,0c-1.056,0.439-2.03,1.06-2.91,1.854
		c-1.59,1.673-2.56,3.975-2.56,6.268c0,2.379,0.879,4.586,2.56,6.268c0.879,0.793,1.854,1.414,2.91,1.854
		c1.06,0.439,2.207,0.707,3.358,0.707c1.146,0,2.293-0.267,3.353-0.707c1.06-0.44,2.03-1.06,2.914-1.854
		c1.677-1.681,2.56-3.887,2.56-6.268c0-2.293-0.974-4.595-2.56-6.268C305.522,407.837,304.638,407.215,303.491,406.776z"/>
	<path style="fill:#6EAADC;" d="M341.716,408.629c-0.884-0.793-1.854-1.414-2.914-1.854c-2.121-0.974-4.59-0.974-6.711,0
		c-1.056,0.439-2.03,1.06-2.91,1.854c-1.59,1.673-2.56,3.975-2.56,6.268c0,2.379,0.879,4.586,2.56,6.268
		c1.677,1.673,3.884,2.56,6.268,2.56s4.59-0.888,6.268-2.56c1.677-1.681,2.56-3.887,2.56-6.268
		C344.276,412.604,343.302,410.302,341.716,408.629z"/>
</g>
<g>
</g>
<g>
</g>
<g>
</g>
<g>
</g>
<g>
</g>
<g>
</g>
<g>
</g>
<g>
</g>
<g>
</g>
<g>
</g>
<g>
</g>
<g>
</g>
<g>
</g>
<g>
</g>
<g>
</g>
</svg>
