<?xml version="1.0" encoding="UTF-8" standalone="no"?>
<svg width="129px" height="27px" viewBox="0 0 129 27" version="1.1" xmlns="http://www.w3.org/2000/svg" xmlns:xlink="http://www.w3.org/1999/xlink">
    <!-- Generator: Sketch 39 (31667) - http://www.bohemiancoding.com/sketch -->
    <title>Slice 1</title>
    <desc>Created with Sketch.</desc>
    <defs></defs>
    <g id="Page-1" stroke="none" stroke-width="1" fill="none" fill-rule="evenodd">
        <g id="logo-text" fill="#FFFFFF">
            <g id="Page-1">
                <path d="M0.404,23.732 C0.47600036,22.8439956 0.89599616,22.1120029 1.664,21.536 C4.11201224,23.1920083 6.51198824,24.02 8.864,24.02 C10.5680085,24.02 11.9119951,23.6600036 12.896,22.94 C13.8800049,22.2199964 14.372,21.2360062 14.372,19.988 C14.372,18.1399908 13.1000127,16.6520056 10.556,15.524 L6.344,13.688 C3.1039838,12.295993 1.484,10.2800132 1.484,7.64 C1.484,6.72799544 1.67599808,5.86400408 2.06,5.048 C2.44400192,4.23199592 2.97799658,3.524003 3.662,2.924 C4.34600342,2.323997 5.1679952,1.85000174 6.128,1.502 C7.0880048,1.15399826 8.15599412,0.98 9.332,0.98 C11.6600116,0.98 14.0359879,1.55599424 16.46,2.708 C16.46,3.64400468 16.0880037,4.411997 15.344,5.012 C14.1679941,4.411997 13.082005,3.98000132 12.086,3.716 C11.089995,3.45199868 10.1720042,3.32 9.332,3.32 C8.56399616,3.32 7.87400306,3.42799892 7.262,3.644 C6.64999694,3.86000108 6.12200222,4.14199826 5.678,4.49 C5.23399778,4.83800174 4.8920012,5.24599766 4.652,5.714 C4.4119988,6.18200234 4.292,6.66799748 4.292,7.172 C4.292,8.22800528 4.59799694,9.04999706 5.21,9.638 C5.82200306,10.2260029 6.67999448,10.7479977 7.784,11.204 L11.852,12.968 C15.4280179,14.5280078 17.216,16.6999861 17.216,19.484 C17.216,21.5720104 16.5080071,23.2519936 15.092,24.524 C13.6759929,25.7960064 11.4800149,26.432 8.504,26.432 C5.57598536,26.432 2.87601236,25.532009 0.404,23.732 L0.404,23.732 Z M35.108,24.884 C34.8439987,25.5560034 34.4360028,26.0119988 33.884,26.252 C32.7079941,25.8199978 31.9640016,24.9800062 31.652,23.732 C29.8039908,25.532009 27.9920089,26.432 26.216,26.432 C25.3039954,26.432 24.5120034,26.2880014 23.84,26 C23.1679966,25.7119986 22.6100022,25.3280024 22.166,24.848 C21.7219978,24.3679976 21.3860011,23.8160031 21.158,23.192 C20.9299989,22.5679969 20.816,21.9080035 20.816,21.212 C20.816,20.2519952 20.9779984,19.4060037 21.302,18.674 C21.6260016,17.9419963 22.0699972,17.3360024 22.634,16.856 C23.1980028,16.3759976 23.8639962,16.0160012 24.632,15.776 C25.4000038,15.5359988 26.2279956,15.416 27.116,15.416 C28.916009,15.416 30.3799944,15.5239989 31.508,15.74 L31.508,13.94 C31.508,11.4919878 30.4280108,10.268 28.268,10.268 C26.6119917,10.268 24.6560113,10.7599951 22.4,11.744 C21.7759969,11.1919972 21.464,10.4960042 21.464,9.656 C24.056013,8.52799436 26.4079894,7.964 28.52,7.964 C32.2400186,7.964 34.1,9.96797996 34.1,13.976 L34.1,21.392 C34.0759999,22.2560043 34.1539991,22.9699972 34.334,23.534 C34.5140009,24.0980028 34.7719983,24.5479983 35.108,24.884 L35.108,24.884 Z M31.508,21.284 L31.508,17.684 C30.9319971,17.5879995 30.3320031,17.5220002 29.708,17.486 C29.0839969,17.4499998 28.4240035,17.432 27.728,17.432 C26.3599932,17.432 25.3160036,17.7499968 24.596,18.386 C23.8759964,19.0220032 23.516,19.8559948 23.516,20.888 C23.516,21.896005 23.7679975,22.6939971 24.272,23.282 C24.7760025,23.8700029 25.4599957,24.164 26.324,24.164 C27.2120044,24.164 28.1179954,23.9180025 29.042,23.426 C29.9660046,22.9339975 30.7879964,22.2200047 31.508,21.284 L31.508,21.284 Z M47.636,8.324 C47.7080004,8.6840018 47.744,9.02599838 47.744,9.35 C47.744,9.67400162 47.7080004,10.0159982 47.636,10.376 L43.064,10.34 L43.064,22.436 C43.064,23.444005 43.5319953,23.948 44.468,23.948 L47.204,23.948 C47.3720008,24.356002 47.456,24.763998 47.456,25.172 C47.456,25.580002 47.4320002,25.8319995 47.384,25.928 C46.2799945,26.0720007 45.1400059,26.144 43.964,26.144 C41.6359884,26.144 40.472,25.14801 40.472,23.156 L40.472,10.34 L37.916,10.376 C37.8439996,10.0159982 37.808,9.67400162 37.808,9.35 C37.808,9.02599838 37.8439996,8.6840018 37.916,8.324 L40.472,8.36 L40.472,4.58 C40.472,3.93199676 40.567999,3.47000138 40.76,3.194 C40.952001,2.91799862 41.3239972,2.78 41.876,2.78 L42.848,2.78 L43.064,2.996 L43.064,8.396 L47.636,8.324 Z M51.776,20.708 L51.776,11.744 C51.776,10.4719936 51.6320014,9.45200384 51.344,8.684 C51.752002,8.29999808 52.3159964,8.108 53.036,8.108 C53.9480046,8.108 54.404,8.69599412 54.404,9.872 L54.404,19.844 C54.404,21.3560076 54.5959981,22.411997 54.98,23.012 C55.3640019,23.612003 56.0359952,23.912 56.996,23.912 C57.9560048,23.912 58.9519948,23.6540026 59.984,23.138 C61.0160052,22.6219974 61.8799965,21.9560041 62.576,21.14 L62.576,8.36 C62.7200007,8.31199976 62.9119988,8.27600012 63.152,8.252 C63.3920012,8.22799988 63.6439987,8.216 63.908,8.216 C64.1720013,8.216 64.4179989,8.22799988 64.646,8.252 C64.8740011,8.27600012 65.0719992,8.31199976 65.24,8.36 L65.24,21.032 C65.24,22.9520096 65.5759966,24.2359968 66.248,24.884 C66.0319989,25.5560034 65.624003,26.0119988 65.024,26.252 C63.8479941,25.8679981 63.0920017,24.980007 62.756,23.588 C61.9399959,24.4040041 60.9620057,25.0639975 59.822,25.568 C58.6819943,26.0720025 57.5360058,26.324 56.384,26.324 C54.775992,26.324 53.6060037,25.8080052 52.874,24.776 C52.1419963,23.7439948 51.776,22.3880084 51.776,20.708 L51.776,20.708 Z M70.64,9.584 C70.8080008,8.95999688 71.191997,8.45600192 71.792,8.072 C73.1360067,8.57600252 73.9999981,9.64399184 74.384,11.276 C75.3680049,9.16398944 76.9759888,8.108 79.208,8.108 C79.7120025,8.108 80.263997,8.15599952 80.864,8.252 C80.864,9.28400516 80.660002,10.1239968 80.252,10.772 C79.9639986,10.7479999 79.5440028,10.736 78.992,10.736 C77.0479903,10.736 75.5840049,11.8279891 74.6,14.012 L74.6,26 C74.2399982,26.0720004 73.7960026,26.108 73.268,26.108 C72.7399974,26.108 72.2960018,26.0720004 71.936,26 L71.936,13.256 C71.936,11.6239918 71.5040043,10.4000041 70.64,9.584 L70.64,9.584 Z M97.82,13.652 L97.82,22.58 C97.82,23.9480068 97.9519987,24.9679966 98.216,25.64 C97.8319981,26.0240019 97.2680037,26.216 96.524,26.216 C95.6119954,26.216 95.156,25.6280059 95.156,24.452 L95.156,14.48 C95.156,13.0159927 94.9760018,11.9780031 94.616,11.366 C94.2559982,10.7539969 93.572005,10.448 92.564,10.448 C91.6039952,10.448 90.6080052,10.7059974 89.576,11.222 C88.5439948,11.7380026 87.6800035,12.4039959 86.984,13.22 L86.984,26 C86.6239982,26.0720004 86.1800026,26.108 85.652,26.108 C85.1239974,26.108 84.6800018,26.0720004 84.32,26 L84.32,8.432 L84.536,8.216 L85.544,8.216 C86.1200029,8.216 86.503999,8.3659985 86.696,8.666 C86.888001,8.9660015 86.984,9.43999676 86.984,10.088 L86.984,10.592 C87.8000041,9.82399616 88.7599945,9.20600234 89.864,8.738 C90.9680055,8.26999766 92.0719945,8.036 93.176,8.036 C94.784008,8.036 95.9599963,8.55199484 96.704,9.584 C97.4480037,10.6160052 97.82,11.9719916 97.82,13.652 L97.82,13.652 Z M119.132,23.336 L125.396,1.412 C125.732002,1.33999964 126.127998,1.304 126.584,1.304 C127.040002,1.304 127.459998,1.35199952 127.844,1.448 L127.988,1.664 L120.644,26.036 C119.923996,26.1080004 119.270003,26.144 118.682,26.144 C118.093997,26.144 117.650002,26.0540009 117.35,25.874 C117.049998,25.6939991 116.804001,25.304003 116.612,24.704 L109.664,1.628 C110.288003,1.33999856 110.863997,1.196 111.392,1.196 C112.160004,1.196 112.663999,1.63999556 112.904,2.528 L117.188,17.036 C117.572002,18.3080064 118.123996,20.2999864 118.844,23.012 C118.892,23.2280011 118.987999,23.336 119.132,23.336 L119.132,23.336 Z" id="Saturn-V"></path>
            </g>
        </g>
    </g>
</svg>