<?xml version="1.0" encoding="utf-8"?>
<!-- Generator: Adobe Illustrator 18.0.0, SVG Export Plug-In . SVG Version: 6.00 Build 0)  -->
<!DOCTYPE svg PUBLIC "-//W3C//DTD SVG 1.1//EN" "http://www.w3.org/Graphics/SVG/1.1/DTD/svg11.dtd">
<svg version="1.1" id="Layer_1" xmlns="http://www.w3.org/2000/svg" xmlns:xlink="http://www.w3.org/1999/xlink" x="0px" y="0px"
	 viewBox="0 0 400 150" enable-background="new 0 0 400 150" xml:space="preserve">
<path fill="#E71D34" d="M350.9,45h15.9c0.3,0.9,0.5,1.7,0.5,2.5c0,0.7-0.1,1.2-0.4,1.5c-0.3,0.3-0.8,0.4-1.5,0.4h-2
	c-1.8,5.3-4.8,15.1-9.2,29.2c-4.4,14.1-7.2,22.1-8.3,24c-1.1,1.9-3.1,2.8-6,2.8c-3.4,0-5.3-0.1-5.6-0.3c-0.3-0.2-3.1-8.4-8.4-24.5
	c-5.2-16.1-8.8-26.5-10.8-31.1h-3.4c-0.4-1-0.6-1.9-0.6-2.7c0-0.6,0.1-1.1,0.4-1.3c0.3-0.3,0.8-0.4,1.5-0.4h17.7
	c0.4,0.9,0.6,1.7,0.6,2.5c0,0.7-0.1,1.2-0.4,1.5c-0.3,0.3-0.8,0.4-1.6,0.4h-2.2c0.8,3.7,3.3,12.3,7.4,25.9
	c4.1,13.6,6.4,20.4,6.8,20.4s2.4-6.8,6.1-20.3c3.7-13.5,5.7-22.2,6-26h-3.9c-0.4-1-0.6-1.9-0.6-2.7c0-0.6,0.1-1.1,0.4-1.3
	C349.7,45.2,350.2,45,350.9,45z"/>
<g>
	<path fill="#1A7BBA" d="M55.6,44.2c6.4,0,10.7,0.4,13.2,1.1c2.4,0.7,3.7,2.2,3.7,4.3c0,2-0.8,3.7-2.3,5.2
		C64,52.1,58.3,50.6,53,50.6c-3.7,0-6.3,0.7-7.9,2.2c-1.5,1.5-2.3,3.5-2.3,6.1c0,2.7,0.9,4.9,2.7,6.5c1.8,1.6,5.3,3.2,10.4,4.8
		c6.1,1.8,10.6,3.9,13.7,6.3c3.1,2.3,4.7,6.2,4.9,11.4c0,5.9-2,10.3-6,13.3c-4,3-10.2,4.5-18.4,4.5c-5.8,0-10.1-0.4-13.1-1.2
		c-3-0.8-4.5-2.3-4.5-4.6c0-2,0.8-3.8,2.5-5.3c5.8,3.1,11.8,4.7,18.1,4.7c4.3,0,7.3-0.7,9.1-2.1c1.8-1.4,2.7-3.6,2.7-6.5
		c0-3.5-1.3-6.1-3.9-7.9c-2.6-1.8-6.8-3.5-12.5-5.3c-5.5-1.7-9.5-3.8-11.8-6.4c-2.4-2.6-3.6-6-3.6-10.2c0-5.2,1.9-9.3,5.8-12.3
		S48.4,44.2,55.6,44.2z"/>
	<path fill="#1A7BBA" d="M131.1,61.9h3l3.6-12.4c1.2,0.4,2.3,0.8,3.1,1.4c0.9,0.5,1.5,1.1,1.9,1.9c0.4,0.7,0.6,3.2,0.6,7.4v1.8h14.4
		c0.3,1,0.5,2,0.5,3.1c0,0.8-0.1,1.4-0.5,1.7c-0.3,0.3-1,0.4-1.9,0.4h-12.5v20.7c0,4.9,0.4,8.2,1.4,9.7c0.9,1.6,2.3,2.4,4.1,2.5
		c1.8,0.1,4.1-0.5,6.7-1.8c0.6,1,1,2,1,3.1c0,1.6-0.8,2.6-2.5,3.1c-1.7,0.5-4.4,0.8-8.1,0.8c-4,0-6.9-0.8-8.8-2.4
		c-1.8-1.6-2.7-4.7-2.7-9.1V83.5c0-5.6-0.1-11.1-0.5-16.3h-4.3c-0.3-1.1-0.5-2.1-0.5-3.1c0-0.7,0.1-1.3,0.5-1.6
		C129.8,62.1,130.3,61.9,131.1,61.9z"/>
	<path fill="#1A7BBA" d="M201.7,87.2c0,5.9,0.2,9.5,0.7,10.8c0.5,1.3,1.4,2,2.8,1.8c0.3,0.7,0.5,1.4,0.5,2.1c0,1.1-0.8,1.9-2.5,2.5
		s-3.3,0.9-4.8,0.9c-1,0-1.8-0.2-2.3-0.6c-0.5-0.4-1.2-1.5-2.2-3.3c-2.3,1.3-4.7,2.4-7.2,3.2c-2.5,0.8-5.1,1.2-7.9,1.2
		c-3.6,0-6.5-1-8.4-3c-2-2-3-5.7-3-11c0-10.4,0-16.8-0.1-19c-0.1-2.3-0.3-3.8-0.7-4.6c-0.4-0.8-0.9-1.4-1.5-1.6
		c-0.6-0.2-1.3-0.3-2-0.3c-0.4-0.6-0.6-1.3-0.6-2.1c0-1,0.7-1.7,2.2-2.1c1.4-0.4,3.4-0.6,6-0.6c2,0,3.4,0.1,4.2,0.4
		c0.7,0.2,1.2,0.6,1.4,1.2s0.3,2.5,0.3,5.8v16.5c0,6,0.7,9.9,2,11.7s3.2,2.7,5.5,2.7c1.7,0,3.3-0.3,4.8-1.1c1.6-0.7,2.6-1.7,3.2-2.9
		s0.8-3.7,0.8-7.3c0-8.4,0-13.6-0.1-15.8c-0.1-2.2-0.3-3.7-0.6-4.6c-0.3-0.9-0.8-1.5-1.3-1.7c-0.5-0.2-1.3-0.3-2.2-0.3
		c-0.4-0.6-0.6-1.3-0.6-2.1c0-1,0.7-1.7,2.3-2.1c1.5-0.4,3.4-0.6,5.6-0.6c2,0,3.4,0.1,4.2,0.4c0.7,0.2,1.2,0.7,1.4,1.3
		c0.2,0.6,0.3,2.6,0.3,5.9L201.7,87.2L201.7,87.2z"/>
	<path fill="#1A7BBA" d="M213.4,63.6c0-0.8,0.3-1.3,0.9-1.5c0.6-0.2,4.5-0.4,11.6-0.7c0.2,1.3,0.2,3.1,0,5.4
		c3.2-2.2,6.4-3.7,9.3-4.6c3-0.8,5.7-1.3,8.2-1.3c0.8,0,1.4,0.1,1.7,0.3s0.4,0.6,0.4,1.3c0,1.3-0.2,2.6-0.6,4
		c-0.4,1.4-0.9,2.3-1.4,2.7c-0.5,0.4-1.5,0.7-2.7,0.9c-1.3,0.2-2.1,0.2-2.3,0.1c-0.2-0.1-0.9-0.9-2-2.4c-2.6,0-4.7,0.8-6.3,2.5
		s-2.4,5-2.4,10c0,9,0.1,15.6,0.3,20h6.2c0.3,0.8,0.5,1.6,0.5,2.4c0,0.8-0.1,1.3-0.5,1.6s-0.9,0.4-1.9,0.4H214
		c-0.4-0.9-0.6-1.8-0.6-2.6c0-0.6,0.1-1.1,0.5-1.4s0.8-0.4,1.6-0.4h3c0.2-4.4,0.3-10,0.3-17.1c0-8.6-0.3-13.6-1-15
		c-0.7-1.4-2-2.1-3.9-2.1C213.6,65.4,213.4,64.5,213.4,63.6z"/>
	<path fill="#1A7BBA" d="M263.3,66.6c2.9-1.9,5.7-3.3,8.6-4.3c2.8-0.9,5.3-1.4,7.6-1.4c3.9,0,6.8,0.9,8.8,2.7
		c2,1.8,2.9,5.2,2.9,10.3c0,15.7,0.2,24,0.7,25c0.4,0.9,1.5,1.4,3.1,1.4c0.3,0.8,0.5,1.7,0.5,2.5c0,0.8-0.2,1.3-0.7,1.6
		c-0.5,0.2-1.4,0.4-2.7,0.4c-4.1,0-6.6,0-7.4-0.1c-0.9-0.1-1.5-0.4-1.9-0.9c-0.3-0.5-0.5-1.4-0.5-2.5V82.3c0-6-0.6-10-1.9-12
		c-1.3-2-3.3-3-6.2-3c-2.4,0-4.5,0.7-6.3,2.1c-1.8,1.4-2.6,3.9-2.6,7.4v9.2c0,5.2,0.1,9.9,0.3,14.3h4.8c0.3,0.8,0.5,1.6,0.5,2.4
		c0,0.8-0.1,1.3-0.5,1.6c-0.3,0.3-0.9,0.4-1.9,0.4h-17.2c-0.4-0.9-0.6-1.8-0.6-2.6c0-0.6,0.1-1.1,0.5-1.4c0.3-0.3,0.8-0.4,1.6-0.4h3
		c0.2-4.6,0.3-10.3,0.3-17.1c0-8.6-0.3-13.6-1-15c-0.7-1.4-2-2.1-3.9-2.1c-0.4-0.8-0.6-1.7-0.6-2.5c0-0.8,0.3-1.3,0.9-1.5
		c0.6-0.2,4.5-0.4,11.6-0.7C263.5,62.8,263.5,64.5,263.3,66.6z"/>
	<path fill="#1A7BBA" d="M108.7,81.8c-2.6-8.9-4-13.3-4.3-13.3s-1.6,4.2-4.1,12.7c-2.4,8.5-3.9,14-4.4,16.7
		c-0.5,2.7-0.9,4.4-1.3,5.1c-0.3,0.7-0.9,1.2-1.6,1.5c-0.7,0.3-2,0.4-3.8,0.4c-4.2,0-6.7-0.1-7.6-0.4c-0.9-0.2-1.4-0.8-1.4-1.7
		c0-0.8,0.2-1.7,0.6-2.6c1,0,1.8-0.1,2.4-0.3c0.6-0.2,1.1-0.7,1.6-1.5c0.5-0.8,1-2.1,1.8-4c0.7-1.9,2.6-7.8,5.9-17.8
		c3.2-10,4.9-15.2,5.2-15.5c0.2-0.3,2.1-0.5,5.6-0.5c2.2,0,3.7,0.7,4.7,2s3.2,7.1,6.6,17.2c3.4,10.1,5.6,16.7,6.7,19.6h0.7
		c0.9,0,1.6,0.1,2,0.5c0.4,0.3,0.6,0.9,0.6,1.9c0,0.9-0.2,1.8-0.6,2.6h-11.5c-0.8,0-1.3-0.2-1.7-0.5c-0.3-0.3-0.5-1-0.5-1.9
		s0.2-1.8,0.5-2.6h2.3C112.8,96.6,111.3,90.7,108.7,81.8z"/>
</g>
</svg>
