<?xml version="1.0" encoding="utf-8"?>
<!-- Generator: Adobe Illustrator 18.0.0, SVG Export Plug-In . SVG Version: 6.00 Build 0)  -->
<!DOCTYPE svg PUBLIC "-//W3C//DTD SVG 1.0//EN" "http://www.w3.org/TR/2001/REC-SVG-20010904/DTD/svg10.dtd">
<svg version="1.0" id="Layer_1" xmlns="http://www.w3.org/2000/svg" xmlns:xlink="http://www.w3.org/1999/xlink" x="0px" y="0px"
	 viewBox="0 0 817.5 244" enable-background="new 0 0 817.5 244" xml:space="preserve">
<path fill="#FC3D21" d="M717.2,60.7h32.5c0.7,1.8,1.1,3.5,1.1,5.2c0,1.5-0.3,2.5-0.9,3.1c-0.6,0.6-1.6,0.9-3.1,0.9h-4.1
	c-3.6,10.9-9.9,30.8-18.9,59.7c-9,28.9-14.7,45.2-16.9,49c-2.2,3.8-6.3,5.7-12.3,5.7c-6.9,0-10.8-0.2-11.5-0.7
	c-0.7-0.5-6.4-17.2-17.1-50c-10.6-32.9-18-54.1-22-63.6h-7c-0.8-2-1.2-3.9-1.2-5.6c0-1.3,0.3-2.2,0.9-2.7c0.6-0.6,1.7-0.9,3.1-0.9
	h36.1c0.8,1.8,1.2,3.5,1.2,5.2c0,1.5-0.3,2.5-0.9,3.1c-0.6,0.6-1.7,0.9-3.2,0.9h-4.5c1.7,7.6,6.7,25.2,15.2,53
	c8.4,27.7,13.1,41.6,13.9,41.6c0.8,0,5-13.8,12.5-41.4c7.5-27.6,11.6-45.3,12.3-53.2h-7.9c-0.8-2-1.2-3.9-1.2-5.6
	c0-1.3,0.3-2.2,0.9-2.7C714.8,61,715.8,60.7,717.2,60.7z"/>
<g>
	<path fill="#FFFFFF" d="M113.6,59c13,0,21.9,0.8,27,2.3c5,1.5,7.5,4.5,7.5,8.8c0,4-1.6,7.6-4.8,10.7c-12.5-5.7-24.2-8.6-34.9-8.6
		c-7.6,0-12.9,1.5-16.1,4.5c-3.1,3-4.7,7.2-4.7,12.5c0,5.6,1.9,10,5.6,13.3c3.7,3.3,10.8,6.6,21.3,9.9c12.4,3.7,21.7,8,28.1,12.8
		c6.4,4.8,9.7,12.6,10.1,23.3c0,12-4.1,21.1-12.3,27.2c-8.2,6.2-20.8,9.2-37.7,9.2c-11.8,0-20.7-0.8-26.8-2.5s-9.1-4.8-9.1-9.3
		c0-4.1,1.7-7.8,5.2-10.9c11.8,6.4,24.1,9.7,36.9,9.7c8.8,0,15-1.4,18.7-4.3c3.7-2.9,5.6-7.3,5.6-13.3c0-7.2-2.7-12.5-8-16.1
		c-5.3-3.6-13.9-7.2-25.6-10.9c-11.3-3.5-19.4-7.8-24.2-13C70.4,108.9,68,102,68,93.5c0-10.6,3.9-19,11.8-25.2
		C87.7,62.1,98.9,59,113.6,59z"/>
	<path fill="#FFFFFF" d="M267.9,95.2h6.1l7.3-25.4c2.5,0.8,4.6,1.7,6.4,2.8c1.8,1.1,3.1,2.3,3.9,3.8c0.8,1.5,1.3,6.5,1.3,15.2v3.7
		h29.5c0.7,2,1.1,4.1,1.1,6.3c0,1.7-0.3,2.9-1,3.4c-0.7,0.6-2,0.9-3.9,0.9h-25.6v42.4c0,10.1,0.9,16.7,2.8,19.9
		c1.9,3.2,4.6,4.9,8.4,5.1c3.7,0.2,8.3-1,13.7-3.7c1.3,2,2,4.1,2,6.4c0,3.2-1.7,5.3-5.2,6.4c-3.5,1.1-9,1.6-16.5,1.6
		c-8.2,0-14.1-1.7-17.9-5c-3.7-3.3-5.6-9.6-5.6-18.7v-21c0-11.5-0.3-22.6-1-33.3h-8.8c-0.7-2.2-1.1-4.2-1.1-6.3c0-1.5,0.3-2.6,1-3.3
		C265.2,95.6,266.3,95.2,267.9,95.2z"/>
	<path fill="#FFFFFF" d="M412.3,147c0,12,0.5,19.4,1.4,22.1c1,2.7,2.9,4,5.7,3.7c0.7,1.4,1.1,2.8,1.1,4.2c0,2.2-1.7,3.9-5.1,5.1
		c-3.4,1.2-6.7,1.8-9.9,1.8c-2.1,0-3.6-0.4-4.6-1.3c-1-0.8-2.4-3.1-4.5-6.8c-4.8,2.7-9.7,4.9-14.8,6.5c-5.1,1.6-10.5,2.4-16.1,2.4
		c-7.4,0-13.2-2-17.2-6.1c-4.1-4.1-6.1-11.6-6.1-22.5c0-21.3-0.1-34.3-0.3-38.8c-0.2-4.6-0.7-7.7-1.5-9.5c-0.8-1.7-1.8-2.8-3-3.2
		c-1.3-0.4-2.6-0.6-4.1-0.6c-0.8-1.3-1.2-2.7-1.2-4.2c0-2.1,1.5-3.5,4.4-4.3c2.9-0.8,7-1.2,12.2-1.2c4.1,0,6.9,0.3,8.5,0.8
		c1.5,0.5,2.5,1.3,2.9,2.5c0.4,1.2,0.6,5.1,0.6,11.8v33.8c0,12.2,1.4,20.2,4.1,24c2.7,3.8,6.5,5.6,11.3,5.6c3.4,0,6.7-0.7,9.9-2.2
		c3.2-1.4,5.4-3.4,6.5-6c1.1-2.6,1.7-7.5,1.7-14.9c0-17.1-0.1-27.8-0.2-32.2c-0.2-4.4-0.6-7.6-1.3-9.4c-0.7-1.9-1.6-3-2.7-3.4
		c-1.1-0.4-2.6-0.6-4.4-0.6c-0.8-1.3-1.2-2.7-1.2-4.2c0-2.1,1.5-3.5,4.6-4.3c3.1-0.8,6.9-1.2,11.5-1.2c4.1,0,6.9,0.3,8.5,0.8
		c1.5,0.5,2.5,1.4,2.9,2.7c0.4,1.3,0.6,5.3,0.6,12V147z"/>
	<path fill="#FFFFFF" d="M436.2,98.8c0-1.6,0.6-2.6,1.9-3.1c1.3-0.4,9.2-0.9,23.7-1.4c0.4,2.7,0.4,6.4,0,11c6.6-4.5,13-7.6,19.1-9.3
		c6.1-1.7,11.7-2.6,16.7-2.6c1.7,0,2.8,0.2,3.4,0.6c0.6,0.4,0.9,1.2,0.9,2.6c0,2.6-0.4,5.3-1.2,8.2c-0.8,2.9-1.8,4.8-2.9,5.6
		c-1.1,0.8-3,1.4-5.6,1.8c-2.6,0.4-4.2,0.5-4.6,0.3c-0.4-0.2-1.8-1.9-4.1-4.9c-5.3,0-9.6,1.7-12.9,5.1c-3.3,3.4-4.9,10.2-4.9,20.4
		c0.1,18.3,0.3,31.9,0.7,40.8h12.6c0.7,1.6,1.1,3.2,1.1,5c0,1.6-0.3,2.7-1,3.3c-0.7,0.6-1.9,0.9-3.8,0.9h-37.9
		c-0.8-1.9-1.2-3.7-1.2-5.4c0-1.3,0.3-2.3,1-2.9c0.7-0.6,1.7-0.9,3.2-0.9h6.2c0.5-8.9,0.7-20.5,0.7-34.9c0-17.6-0.7-27.8-2.1-30.6
		c-1.4-2.8-4-4.2-7.9-4.2C436.6,102.3,436.2,100.6,436.2,98.8z"/>
	<path fill="#FFFFFF" d="M538.2,104.9c5.9-3.9,11.7-6.8,17.5-8.7c5.8-1.9,10.9-2.8,15.5-2.8c7.9,0,13.9,1.8,18,5.5
		c4,3.7,6,10.7,6,21c0,32.1,0.5,49.1,1.4,51.1c0.9,1.9,3.1,2.8,6.4,2.8c0.7,1.7,1,3.5,1,5.2c0,1.6-0.5,2.7-1.5,3.2
		c-1,0.5-2.9,0.8-5.6,0.8c-8.3,0-13.4-0.1-15.2-0.3c-1.9-0.2-3.1-0.8-3.8-1.9c-0.7-1-1-2.8-1-5.2V137c0-12.3-1.3-20.5-3.9-24.5
		c-2.6-4.1-6.8-6.1-12.6-6.1c-5,0-9.2,1.4-12.9,4.2c-3.6,2.8-5.4,7.9-5.4,15.1v18.9c0,10.6,0.2,20.3,0.6,29.2h9.9
		c0.7,1.6,1.1,3.2,1.1,5c0,1.6-0.3,2.7-1,3.3c-0.7,0.6-1.9,0.9-3.8,0.9h-35.2c-0.8-1.9-1.2-3.7-1.2-5.4c0-1.3,0.3-2.3,1-2.9
		c0.7-0.6,1.7-0.9,3.2-0.9h6.2c0.5-9.5,0.7-21.1,0.7-34.9c0-17.6-0.7-27.8-2.1-30.6c-1.4-2.8-4-4.2-7.9-4.2
		c-0.8-1.7-1.2-3.4-1.2-5.2c0-1.6,0.6-2.6,1.9-3.1c1.3-0.4,9.2-0.9,23.7-1.4C538.6,97.1,538.6,100.6,538.2,104.9z"/>
	<path fill="#FFFFFF" d="M222.2,135.9c-5.3-18.1-8.2-27.1-8.8-27.1c-0.6,0-3.3,8.6-8.3,25.9c-5,17.3-8,28.6-9,34.2
		c-1,5.5-1.9,9-2.7,10.5c-0.7,1.5-1.8,2.5-3.3,3.1c-1.4,0.6-4,0.9-7.7,0.9c-8.5,0-13.7-0.3-15.5-0.8s-2.8-1.7-2.8-3.5
		c0-1.7,0.4-3.5,1.2-5.4c2.1,0,3.7-0.2,4.9-0.6c1.2-0.4,2.3-1.4,3.2-3c1-1.6,2.1-4.3,3.6-8.1c1.4-3.8,5.4-15.9,12-36.4
		c6.5-20.5,10.1-31.1,10.6-31.7c0.5-0.7,4.3-1,11.4-1c4.4,0,7.6,1.4,9.6,4.1s6.6,14.5,13.5,35.2c7,20.7,11.5,34.1,13.7,40.1h1.4
		c1.9,0,3.3,0.3,4,1c0.8,0.7,1.2,1.9,1.2,3.8c0,1.9-0.4,3.7-1.2,5.4h-23.5c-1.6,0-2.7-0.4-3.4-1.1c-0.7-0.7-1-2-1-3.8
		c0-1.8,0.4-3.6,1.1-5.3h4.8C230.5,166.2,227.5,154,222.2,135.9z"/>
</g>
</svg>
