<?xml version="1.0" encoding="utf-8"?>
<!-- Generator: Adobe Illustrator 18.0.0, SVG Export Plug-In . SVG Version: 6.00 Build 0)  -->
<!DOCTYPE svg PUBLIC "-//W3C//DTD SVG 1.1//EN" "http://www.w3.org/Graphics/SVG/1.1/DTD/svg11.dtd" [
	<!ENTITY ns_extend "http://ns.adobe.com/Extensibility/1.0/">
	<!ENTITY ns_ai "http://ns.adobe.com/AdobeIllustrator/10.0/">
	<!ENTITY ns_graphs "http://ns.adobe.com/Graphs/1.0/">
	<!ENTITY ns_vars "http://ns.adobe.com/Variables/1.0/">
	<!ENTITY ns_imrep "http://ns.adobe.com/ImageReplacement/1.0/">
	<!ENTITY ns_sfw "http://ns.adobe.com/SaveForWeb/1.0/">
	<!ENTITY ns_custom "http://ns.adobe.com/GenericCustomNamespace/1.0/">
	<!ENTITY ns_adobe_xpath "http://ns.adobe.com/XPath/1.0/">
]>
<svg version="1.1" id="Layer_1" xmlns:x="&ns_extend;" xmlns:i="&ns_ai;" xmlns:graph="&ns_graphs;"
	 xmlns="http://www.w3.org/2000/svg" xmlns:xlink="http://www.w3.org/1999/xlink" x="0px" y="0px" viewBox="0 0 1000 1000"
	 enable-background="new 0 0 1000 1000" xml:space="preserve">
<metadata>
	<sfw  xmlns="&ns_sfw;">
		<slices></slices>
		<sliceSourceBounds  width="578.9" height="825.5" bottomLeftOrigin="true" x="219.3" y="90.6"></sliceSourceBounds>
	</sfw>
</metadata>
<path fill="#CCCCC6" d="M581.3,586.2c9.3,5.1,16.5,13.7,19,25.1c-14.6-19.9-34-28.2-58.4-24.9c8.5-5,18.4-6.3,27.4-4.5
	c-3.6-3-6.8-6-9.9-9.1c-29.4-29.7-33.6-62.1-33.4-79.5l-35-0.4c-0.4,42.9-25.4,72-50.8,90.5c9.4,0,18.9,3.2,26.3,10.3
	c-23.2-8.3-43.9-4.4-62.3,12c5.1-10.8,14.8-18,25.5-20.9c-9.9-2.3-20.4-1.7-30.5,2.4c-26.4,10.6-39.3,40.7-28.6,67.1
	c10.1,25.1,37.8,37.9,63.2,30c1.2-0.4,2.6-0.8,3.9-1.3c1.8-0.7,3.4-1.5,5.1-2.4c10,8.8,23.1,13.5,36.5,12.8
	c-7.1-5.2-12.4-12.8-14.4-22.2c14.6,19.9,34,28.2,58.4,24.9c-12,7-26,6.8-37.6,1.2c0.5,2.4,1.2,4.7,2.2,7c10.1,25,37.7,37.9,63,29.9
	c1.3-0.4,2.7-0.9,4.1-1.4c20.1-8.1,32.4-27.6,32.3-48c10,2.3,20.8,1.8,31.1-2.4c26.4-10.6,39.3-40.7,28.6-67.1
	C636.4,589.5,607.4,576.7,581.3,586.2z M502.9,665.9c-25-6.5-38.1-36.6-23.7-58.8C475.5,631.4,483.3,650.9,502.9,665.9z"/>
<g>
	<g>
		<path fill="#FFAE00" d="M512.7,551.5c52.8-64.1,19.6-92.3,19.6-92.3h-19.6h-0.2h-19.6c0,0-33.2,28.1,19.6,92.3v0.2
			c0,0,0.1-0.1,0.1-0.1c0,0,0.1,0.1,0.1,0.1V551.5z"/>
	</g>
	<g>
		<path fill="#FBED21" d="M512.7,530c40.5-49.2,15.1-70.8,15.1-70.8h-15.1h-0.1h-15.1c0,0-25.5,21.6,15.1,70.8v0.2
			C512.6,530.2,512.6,530.2,512.7,530c0,0.1,0,0.1,0,0.2V530z"/>
	</g>
	<g>
		<path fill="#F1F1F1" d="M512.7,508.9c28.4-34.5,10.6-49.6,10.6-49.6h-10.6h-0.1H502C502,459.2,484.2,474.4,512.7,508.9l-0.1,0.1
			C512.6,509,512.6,509,512.7,508.9c0,0.1,0,0.1,0,0.1V508.9z"/>
	</g>
	<polygon fill="#C0272D" points="544.4,465.8 479.2,465.8 489.4,403.2 534.2,403.2 	"/>
	<rect x="476.6" y="464.1" fill="#9E2025" width="70.4" height="10.5"/>
	<path fill="#C0272D" d="M519,464.1h25.1l-4.8-29.5h-17.8C521,445.9,520.1,456,519,464.1z"/>
	<path fill="#9E2025" d="M517.2,474.5H547v-10.5h-2.8H519C518.5,468.1,517.9,471.6,517.2,474.5z"/>
</g>
<path fill="#3D74AA" d="M219.3,832.3c0-10.2,3.5-17.9,10.7-23.1c7.2-5.2,16.1-7.8,26.9-7.8c9.4,0,18.9,2.4,28.3,7.3v18.6
	c-8.2-5.4-16.8-8-26.1-8c-5.8,0-10.7,1-14.8,3c-4.1,2-6,5.2-6,9.5c0,3.5,1.8,6.3,5.5,8.2c3.7,2,8.2,3.6,13.4,5
	c5.2,1.4,10.5,3.1,15.8,5.1c5.3,2,9.7,5.7,13.4,10.7c3.7,5.1,5.5,11.6,5.5,19.6c0,8.5-3.5,15.4-10.6,20.8c-7,5.4-15.6,8.1-25.8,8.1
	c-13.4,0-25-2.9-34.8-8.8v-19.2c9.1,6.7,19.2,10.1,30.4,10.1c14.5,0,21.8-4.1,21.8-12.2c0-3.6-1.3-6.7-3.9-9.1s-6-4.2-10-5.4
	c-4-1.1-8.3-2.5-12.9-4.1c-4.6-1.6-8.9-3.2-12.9-5.1c-4-1.9-7.3-4.8-10-8.7C220.6,843,219.3,838.2,219.3,832.3z"/>
<path fill="#3D74AA" d="M309.1,882.3c0-1.6,0.2-3.2,0.5-4.9s1.1-3.8,2.4-6.3s3.1-4.8,5.4-6.6c2.3-1.9,5.7-3.5,10.1-4.9
	c4.5-1.4,9.7-2,15.8-2c4.3,0,8.9,0.4,13.9,1.1c0-10-5.6-15.1-16.7-15.1c-8.9,0-16.6,1.4-23.2,4v-15.6c7.3-2.6,15.4-4,24.3-4
	c11.2,0,19.8,2.9,25.8,8.6c6,5.7,9,14,9,24.9v21.3c0,7.2-2.7,13.5-8.2,18.7c-5.4,5.2-13.7,7.8-25.1,7.8c-11.6,0-20.2-2.6-25.7-7.8
	C311.8,896.3,309.1,889.9,309.1,882.3z M328.1,880c0,8.5,5,12.7,14.9,12.7c0.1,0,0.1,0,0.2,0c9.4,0,14.2-4,14.2-12v-10
	c-4.5-0.6-8.2-1-11.3-1C334.1,869.7,328.1,873.1,328.1,880z"/>
<path fill="#3D74AA" d="M388,845.5v-16.3h13.3v-23.4h19v23.4h18.6v16.3h-18.7v38.9c0,3.4,0.7,5.7,2.1,6.9c1.4,1.2,3.9,1.8,7.5,1.8
	c3.4,0,6.4-0.5,9.1-1.7v15.7c-3.7,1.5-7.8,2.3-12.2,2.3c-0.2,0-0.3,0-0.4,0c-7.8,0-14-2.3-18.5-6.9c-4.5-4.6-6.7-11-6.7-19.2v-37.7
	L388,845.5L388,845.5z"/>
<path fill="#3D74AA" d="M457.5,872.4v-43.2h19v45.6c0,6.3,1.3,10.9,3.8,13.7s6.8,4.2,12.6,4.2c6,0,10.2-1.4,12.8-4.2
	c2.6-2.8,3.8-7.3,3.8-13.7v-45.6h19v43.2c0,11.5-3.2,20.7-9.4,27.2c-6.3,6.6-15,9.8-26.2,9.8c-11.2,0-19.9-3.2-26.1-9.8
	C460.6,893.1,457.5,884,457.5,872.4z"/>
<path fill="#3D74AA" d="M550.3,908.1v-71.9c1.3-0.6,3.1-1.4,5.4-2.2c2.3-0.8,6.8-2,13.7-3.6s13.7-2.4,20.4-2.5v16.4
	c-7.9,0.1-14.7,1-20.4,2.6v61.2H550.3z"/>
<path fill="#3D74AA" d="M607.4,908.1v-71.5c11.5-5.7,23.6-8.7,36.2-8.7c11,0,19.6,2.9,25.8,8.6c6.2,5.7,9.3,13.8,9.3,24.2v47.4h-19
	v-49.1c0-2.1-0.2-3.8-0.6-5.3c-0.4-1.4-1.1-2.9-2.3-4.5c-1.1-1.5-3-2.7-5.7-3.5c-2.6-0.8-6-1.1-10.1-1.1c-4.6,0-9.5,0.5-14.6,1.4v62
	H607.4z"/>
<path fill="#DE445E" d="M698,802.7h20.2l29.9,82l29.9-82h20.2l-40.4,105.4h-19.5L698,802.7z"/>
<g>
	<rect x="473.8" y="322.6" fill="#EDEDEF" width="69.9" height="23.1"/>
	<rect x="473.8" y="322.6" fill="#FFFFFF" width="35" height="23.1"/>
	<path fill="#ED3A5A" d="M511.5,421.8c51.8,0,96,32.2,113.7,77.7c5.4-13.8,8.4-28.7,8.4-44.4c0-67.4-54.7-122.1-122.1-122.1
		c-67.4,0-122.1,54.7-122.1,122.1c0,15.7,3,30.6,8.4,44.4C415.5,454,459.7,421.8,511.5,421.8z"/>
	<path fill="#BC3347" d="M542.7,337.1v88.9c37.8,10,68.5,37.6,82.6,73.6c5.4-13.8,8.4-28.7,8.4-44.4
		C633.6,398.5,595,350.8,542.7,337.1z"/>
	<path fill="#F1F1F1" d="M511.5,437.7c15,0,29.5,2.3,43.1,6.7c20.2-40.8,32.3-93.5,32.3-151.1c0-91.4-30.7-170.6-75.4-209.4
		c-44.8,38.8-75.4,118-75.4,209.4c0,57.6,12.2,110.2,32.4,151.1C482,440,496.5,437.7,511.5,437.7z"/>
	<path fill="#E5E5E5" d="M511.5,83.9c-0.1,0.1-0.3,0.3-0.4,0.4l0,353.4c0.1,0,0.3,0,0.4,0c15,0,29.5,2.3,43.1,6.7
		c20.2-40.8,32.3-93.5,32.3-151.1C586.9,201.9,556.3,122.7,511.5,83.9z"/>
	<path fill="#DE445E" d="M511.5,170.4c19,0,37.5,0.7,55.7,1.9c-13.3-37.6-32.6-68.4-55.7-88.4c-23.1,20-42.4,50.8-55.7,88.4
		C474,171.1,492.5,170.4,511.5,170.4z"/>
	<path fill="#BC3347" d="M511.1,84.3v86.2c0.1,0,0.3,0,0.4,0c19,0,37.5,0.7,55.7,1.9c-13.3-37.6-32.6-68.4-55.7-88.4
		C511.4,84,511.2,84.2,511.1,84.3z"/>
	<path fill="#DE445E" d="M511.5,325.6c-9.6,16.2-16.2,49.1-16.2,87.1c0,38,6.6,70.9,16.2,87.1c9.6-16.2,16.2-49.1,16.2-87.1
		C527.7,374.7,521.1,341.8,511.5,325.6z"/>
	<path fill="#BC3347" d="M511.1,326.4l0,172.6c0.2,0.3,0.3,0.5,0.4,0.8c9.6-16.2,16.2-49.1,16.2-87.1c0-38-6.6-70.9-16.2-87.1
		C511.4,325.9,511.2,326.2,511.1,326.4z"/>
	<path fill="#3D74AA" d="M511.5,293.3c-23.4,0-42.4-19-42.4-42.4c0-23.4,19-42.4,42.4-42.4c23.4,0,42.4,19,42.4,42.4
		C553.9,274.3,534.9,293.3,511.5,293.3L511.5,293.3z"/>
	<path fill="#FFFFFF" d="M511.5,221.5c-16.2,0-29.5,13.2-29.5,29.5c0,16.3,13.2,29.5,29.5,29.5c16.2,0,29.5-13.2,29.5-29.5
		C541,234.7,527.8,221.5,511.5,221.5L511.5,221.5z"/>
	<g>
		<path fill="#346299" d="M511.5,208.5c-0.1,0-0.3,0-0.4,0l0,12.9c0.1,0,0.3,0,0.4,0c16.2,0,29.5,13.2,29.5,29.4
			c0,16.3-13.2,29.5-29.5,29.5c-0.1,0-0.3,0-0.4,0l0,12.9c0.1,0,0.3,0,0.4,0c23.4,0,42.4-19,42.4-42.4
			C553.9,227.5,534.9,208.5,511.5,208.5z"/>
		<path fill="#D1ECFB" d="M541,250.9c0-16.2-13.2-29.4-29.5-29.4c-0.1,0-0.3,0-0.4,0v58.9c0.1,0,0.3,0,0.4,0
			C527.8,280.4,541,267.2,541,250.9z"/>
	</g>
</g>
</svg>
