<?xml version="1.0" encoding="utf-8"?>
<!-- Generator: Adobe Illustrator 18.0.0, SVG Export Plug-In . SVG Version: 6.00 Build 0)  -->
<!DOCTYPE svg PUBLIC "-//W3C//DTD SVG 1.0//EN" "http://www.w3.org/TR/2001/REC-SVG-20010904/DTD/svg10.dtd">
<svg version="1.0" id="Layer_1" xmlns="http://www.w3.org/2000/svg" xmlns:xlink="http://www.w3.org/1999/xlink" x="0px" y="0px"
	 viewBox="0 0 1000 1000" enable-background="new 0 0 1000 1000" xml:space="preserve">
<g>
	<path fill="#E63A47" d="M539,533.8c-7.2-4.5-13.7-10-19.2-16.5c-1.8-0.2-3.6-0.6-5.4-1L482,593.1L377.8,352.8
		c-35.7-71.9-99-91-183.1-99.9L394,695.5h167.2c0,0,17.3-36.9,41.9-89.6C568.7,598.2,542.5,569,539,533.8z"/>
	<path fill="#B4BECE" d="M700,451.2c6.7,8.2,10.2,18.9,8.2,30.4c-6.1-23.9-21-38.8-44.9-44.9c9.8-1.5,19.4,1,27.1,6
		c-2.2-4.1-4.1-8.1-5.8-12.1c-16.2-38.5-8-70.2-1.3-86.2L651,331c-16.4,39.6-50.4,57.3-80.9,65c8.7,3.5,16.3,10,20.5,19.4
		c-18.4-16.4-39.1-20.5-62.3-12.1c8.8-8.1,20.5-11.2,31.5-9.9c-8.3-5.8-18.3-9.2-29.2-9.2c-28.5,0-51.6,23.1-51.6,51.6
		c0,27.1,20.9,49.3,47.5,51.4c1.3,0.1,2.7,0.2,4.1,0.2c1.9,0,3.7-0.1,5.6-0.3c6,11.9,16.4,21.1,29.1,25.5c-4.6-7.5-6.7-16.5-5.1-26
		c6.1,23.9,21,38.8,44.9,44.9c-13.7,2-26.7-3.4-35.3-12.9c-0.4,2.4-0.6,4.8-0.6,7.3c0,27,20.8,49.2,47.3,51.3
		c1.4,0.1,2.8,0.2,4.3,0.2c21.7,0,40.3-13.5,47.9-32.5c8.4,5.9,18.6,9.4,29.7,9.4c28.5,0,51.6-23.1,51.6-51.6
		C749.9,474.8,727.7,452.1,700,451.2z M597.5,495.8c-20.8-15.4-21.7-48.2,0-63.4C585,453.6,584.9,474.6,597.5,495.8z"/>
	<path fill="#477C9E" d="M788,66.1c-2.7-6.5-10.1-9.5-16.5-6.8c-42.1,17.4-81.9,36-106.8,72.4c-13.2,19.2-21.3,41.8-25.8,65.1
		c-28.4,13.9-56.7,71-56.7,71s16.9,5.3,32.7,9.6c8.5,2.3,16.8,4.3,21.9,5.1c1.1,8.6,2.5,16.9,4.2,24.5c0.9,4,3.7,7.3,7.5,8.9
		l44.9,18.6c3.1,1.3,6.6,1.3,9.7,0c0.6-0.3,15.4-10,22.2-15.4c2.1,1.6,5,3.5,8.4,5.6c15.5,9.6,40.6,22.8,40.6,22.8
		s20.5-60.4,10.2-90.3c13.4-19.7,23.6-41.4,27.8-64.2C820.3,149.5,804.7,106.5,788,66.1z M733.2,197.8c-13.1,0-23.7-10.6-23.7-23.7
		c0-13.1,10.6-23.7,23.7-23.7s23.7,10.6,23.7,23.7C756.9,187.2,746.3,197.8,733.2,197.8z"/>
</g>
<g>
	<path fill="#477C9E" d="M93,852.1c0-13.5,4.7-23.7,14.2-30.6c9.5-6.9,21.3-10.3,35.6-10.3c12.5,0,25.1,3.2,37.5,9.7v24.6
		c-10.8-7.1-22.3-10.6-34.6-10.6c-7.7,0-14.2,1.3-19.6,4c-5.4,2.7-8,6.9-8,12.6c0,4.6,2.4,8.3,7.3,10.9c4.9,2.6,10.8,4.8,17.7,6.6
		c6.9,1.8,13.9,4.1,20.9,6.8c7,2.7,12.9,7.5,17.8,14.2c4.9,6.7,7.3,15.4,7.3,26c0,11.2-4.7,20.4-14,27.5
		c-9.3,7.1-20.7,10.7-34.2,10.7c-17.7,0-33.1-3.9-46.1-11.7v-25.4c12,8.9,25.4,13.4,40.3,13.4c19.2,0,28.9-5.4,28.9-16.1
		c0-4.8-1.7-8.9-5.2-12.1c-3.5-3.2-7.9-5.6-13.2-7.1c-5.3-1.5-11-3.3-17.1-5.4c-6.1-2.1-11.8-4.3-17.1-6.8
		c-5.3-2.5-9.7-6.3-13.2-11.5C94.7,866.3,93,859.9,93,852.1z"/>
	<path fill="#477C9E" d="M212,918.4c0-2.1,0.2-4.3,0.6-6.5c0.4-2.2,1.5-5,3.2-8.3c1.7-3.3,4.1-6.3,7.2-8.8c3-2.5,7.5-4.7,13.4-6.5
		c5.9-1.8,12.9-2.7,20.9-2.7c5.7,0,11.8,0.5,18.4,1.4c0-13.3-7.4-20-22.1-20c-11.8,0-22,1.8-30.7,5.3v-20.7
		c9.7-3.5,20.4-5.3,32.2-5.3c14.9,0,26.3,3.8,34.2,11.4c7.9,7.6,11.9,18.6,11.9,33v28.2c0,9.6-3.6,17.9-10.8,24.8
		c-7.2,6.9-18.2,10.4-33.2,10.4c-15.4,0-26.8-3.5-34.1-10.4C215.6,936.9,212,928.4,212,918.4z M237.2,915.3
		c0,11.2,6.6,16.8,19.7,16.8c0.1,0,0.1,0,0.2,0c12.5,0,18.8-5.3,18.8-15.9V903c-5.9-0.8-10.9-1.3-15-1.3
		C245.1,901.7,237.2,906.2,237.2,915.3z"/>
	<path fill="#477C9E" d="M316.5,869.6V848h17.6v-31h25.2v31H384v21.6h-24.8v51.6c0,4.5,0.9,7.5,2.8,9.1c1.9,1.6,5.2,2.4,10,2.4
		c4.5,0,8.5-0.7,12-2.3v20.8c-4.9,2-10.3,3.1-16.1,3.1c-0.2,0-0.4,0-0.5,0c-10.4,0-18.5-3.1-24.5-9.2c-5.9-6.1-8.9-14.6-8.9-25.4
		v-50H316.5z"/>
	<path fill="#477C9E" d="M408.6,905.2V848h25.2v60.4c0,8.4,1.7,14.4,5.1,18.1c3.4,3.7,9,5.5,16.7,5.5c7.9,0,13.5-1.8,16.9-5.5
		c3.4-3.7,5.1-9.7,5.1-18.1V848h25.2v57.2c0,15.3-4.2,27.4-12.5,36c-8.3,8.7-19.9,13-34.7,13s-26.4-4.3-34.6-13
		C412.8,932.6,408.6,920.6,408.6,905.2z"/>
	<path fill="#477C9E" d="M531.6,952.6v-95.3c1.7-0.8,4.1-1.8,7.1-2.9c3-1.1,9-2.7,18.1-4.8c9.1-2.1,18.1-3.2,27-3.3V868
		c-10.5,0.1-19.5,1.3-27,3.5v81.1H531.6z"/>
	<path fill="#477C9E" d="M607.2,952.6v-94.7c15.3-7.6,31.3-11.5,48-11.5c14.6,0,26,3.8,34.2,11.4c8.2,7.6,12.3,18.3,12.3,32v62.8
		h-25.2v-65c0-2.8-0.3-5.1-0.8-7c-0.5-1.9-1.5-3.8-3.1-5.9c-1.5-2-4-3.6-7.5-4.6c-3.5-1-7.9-1.5-13.4-1.5c-6.1,0-12.6,0.6-19.4,1.8
		v82.2H607.2z"/>
	<path fill="#477C9E" d="M793.7,812.9h26.8l39.6,108.6l39.6-108.6h26.8L873,952.6h-25.8L793.7,812.9z"/>
</g>
</svg>
