<?xml version="1.0" encoding="utf-8"?>
<!-- Generator: Adobe Illustrator 18.0.0, SVG Export Plug-In . SVG Version: 6.00 Build 0)  -->
<!DOCTYPE svg PUBLIC "-//W3C//DTD SVG 1.1//EN" "http://www.w3.org/Graphics/SVG/1.1/DTD/svg11.dtd" [
	<!ENTITY ns_extend "http://ns.adobe.com/Extensibility/1.0/">
	<!ENTITY ns_ai "http://ns.adobe.com/AdobeIllustrator/10.0/">
	<!ENTITY ns_graphs "http://ns.adobe.com/Graphs/1.0/">
	<!ENTITY ns_vars "http://ns.adobe.com/Variables/1.0/">
	<!ENTITY ns_imrep "http://ns.adobe.com/ImageReplacement/1.0/">
	<!ENTITY ns_sfw "http://ns.adobe.com/SaveForWeb/1.0/">
	<!ENTITY ns_custom "http://ns.adobe.com/GenericCustomNamespace/1.0/">
	<!ENTITY ns_adobe_xpath "http://ns.adobe.com/XPath/1.0/">
]>
<svg version="1.1" id="Layer_1" xmlns:x="&ns_extend;" xmlns:i="&ns_ai;" xmlns:graph="&ns_graphs;"
	 xmlns="http://www.w3.org/2000/svg" xmlns:xlink="http://www.w3.org/1999/xlink" x="0px" y="0px" viewBox="0 0 300 700"
	 enable-background="new 0 0 300 700" xml:space="preserve">
<metadata>
	<sfw  xmlns="&ns_sfw;">
		<slices></slices>
		<sliceSourceBounds  width="283.9" height="652.8" bottomLeftOrigin="true" x="7.8" y="-673.6"></sliceSourceBounds>
	</sfw>
</metadata>
<path fill="#CDCCC6" d="M222.3,523.2c9.3,5.1,16.5,13.7,19,25.1c-14.6-19.9-34-28.2-58.4-24.9c8.5-5,18.4-6.3,27.4-4.5
	c-3.6-3-6.8-6-9.9-9.1c-29.4-29.7-33.6-62.1-33.4-79.5l-35-0.4c-0.4,42.9-25.4,72-50.8,90.5c9.4,0,18.9,3.2,26.3,10.3
	c-23.2-8.3-43.9-4.4-62.3,12c5.1-10.8,14.8-18,25.5-20.9c-9.9-2.3-20.4-1.7-30.5,2.4C13.7,534.9,0.9,565,11.6,591.4
	c10.1,25.1,37.8,37.9,63.2,30c1.2-0.4,2.6-0.8,3.9-1.3c1.8-0.7,3.4-1.5,5.1-2.4c10,8.8,23.1,13.5,36.5,12.8
	c-7.1-5.2-12.4-12.8-14.4-22.2c14.6,19.9,34,28.2,58.4,24.9c-12,7-26,6.8-37.6,1.2c0.5,2.4,1.2,4.7,2.2,7c10.1,25,37.7,37.9,63,29.9
	c1.3-0.4,2.7-0.9,4.1-1.4c20.1-8.1,32.4-27.6,32.3-48c10,2.3,20.8,1.8,31.1-2.4c26.4-10.6,39.3-40.7,28.6-67.1
	C277.4,526.5,248.4,513.7,222.3,523.2z M143.9,602.9c-25-6.5-38.1-36.6-23.7-58.8C116.5,568.4,124.3,587.9,143.9,602.9z"/>
<g>
	<g>
		<path fill="#FBAD18" d="M153.7,488.5c52.8-64.1,19.6-92.3,19.6-92.3h-19.6h-0.2h-19.6c0,0-33.2,28.1,19.6,92.3v0.2
			c0,0,0.1-0.1,0.1-0.1c0,0,0.1,0.1,0.1,0.1V488.5z"/>
	</g>
	<g>
		<path fill="#FAED22" d="M153.7,467c40.5-49.2,15.1-70.8,15.1-70.8h-15.1h-0.1h-15.1c0,0-25.5,21.6,15.1,70.8v0.2
			C153.6,467.2,153.6,467.2,153.7,467c0,0.1,0,0.1,0,0.2V467z"/>
	</g>
	<g>
		<path fill="#F2F2F2" d="M153.7,445.9c28.4-34.5,10.6-49.6,10.6-49.6h-10.6h-0.1H143C143,396.2,125.2,411.4,153.7,445.9l-0.1,0.1
			C153.6,446,153.6,446,153.7,445.9c0,0.1,0,0.1,0,0.1V445.9z"/>
	</g>
	<polygon fill="#C0282D" points="185.4,402.8 120.2,402.8 130.4,340.2 175.2,340.2 	"/>
	<rect x="117.6" y="401.1" fill="#9F2226" width="70.4" height="10.5"/>
	<path fill="#C0282D" d="M160,401.1h25.1l-4.8-29.5h-17.8C162,382.9,161.1,393,160,401.1z"/>
	<path fill="#9F2226" d="M158.2,411.5H188v-10.5h-2.8H160C159.5,405.1,158.9,408.6,158.2,411.5z"/>
</g>
<g>
	<rect x="114.8" y="259.6" fill="#EDEDEF" width="69.9" height="23.1"/>
	<rect x="114.8" y="259.6" fill="#FFFFFF" width="35" height="23.1"/>
	<path fill="#ED3C5B" d="M152.5,358.8c51.8,0,96,32.2,113.7,77.7c5.4-13.8,8.4-28.7,8.4-44.4c0-67.4-54.7-122.1-122.1-122.1
		c-67.4,0-122.1,54.7-122.1,122.1c0,15.7,3,30.6,8.4,44.4C56.5,391,100.7,358.8,152.5,358.8z"/>
	<path fill="#BC3648" d="M183.7,274.1v88.9c37.8,10,68.5,37.6,82.6,73.6c5.4-13.8,8.4-28.7,8.4-44.4
		C274.6,335.5,236,287.8,183.7,274.1z"/>
	<path fill="#F2F2F2" d="M152.5,374.7c15,0,29.5,2.3,43.1,6.7c20.2-40.8,32.3-93.5,32.3-151.1c0-91.4-30.7-170.6-75.4-209.4
		c-44.8,38.8-75.4,118-75.4,209.4c0,57.6,12.2,110.2,32.4,151.1C123,377,137.5,374.7,152.5,374.7z"/>
	<path fill="#E5E5E5" d="M152.5,20.9c-0.1,0.1-0.3,0.3-0.4,0.4l0,353.4c0.1,0,0.3,0,0.4,0c15,0,29.5,2.3,43.1,6.7
		c20.2-40.8,32.3-93.5,32.3-151.1C227.9,138.9,197.3,59.7,152.5,20.9z"/>
	<path fill="#DE445E" d="M152.5,107.4c19,0,37.5,0.7,55.7,1.9c-13.3-37.6-32.6-68.4-55.7-88.4c-23.1,20-42.4,50.8-55.7,88.4
		C115,108.1,133.5,107.4,152.5,107.4z"/>
	<path fill="#BC3648" d="M152.1,21.3v86.2c0.1,0,0.3,0,0.4,0c19,0,37.5,0.7,55.7,1.9c-13.3-37.6-32.6-68.4-55.7-88.4
		C152.4,21,152.2,21.2,152.1,21.3z"/>
	<path fill="#DE445E" d="M152.5,262.6c-9.6,16.2-16.2,49.1-16.2,87.1c0,38,6.6,70.9,16.2,87.1c9.6-16.2,16.2-49.1,16.2-87.1
		C168.7,311.7,162.1,278.8,152.5,262.6z"/>
	<path fill="#BC3648" d="M152.1,263.4l0,172.6c0.2,0.3,0.3,0.5,0.4,0.8c9.6-16.2,16.2-49.1,16.2-87.1c0-38-6.6-70.9-16.2-87.1
		C152.4,262.9,152.2,263.2,152.1,263.4z"/>
	<path fill="#3F75AA" d="M152.5,230.3c-23.4,0-42.4-19-42.4-42.4c0-23.4,19-42.4,42.4-42.4c23.4,0,42.4,19,42.4,42.4
		C194.9,211.3,175.9,230.3,152.5,230.3L152.5,230.3z"/>
	<path fill="#FFFFFF" d="M152.5,158.5c-16.2,0-29.5,13.2-29.5,29.5c0,16.3,13.2,29.5,29.5,29.5c16.2,0,29.5-13.2,29.5-29.5
		C182,171.7,168.8,158.5,152.5,158.5L152.5,158.5z"/>
	<g>
		<path fill="#356299" d="M152.5,145.5c-0.1,0-0.3,0-0.4,0l0,12.9c0.1,0,0.3,0,0.4,0c16.2,0,29.5,13.2,29.5,29.4
			c0,16.3-13.2,29.5-29.5,29.5c-0.1,0-0.3,0-0.4,0l0,12.9c0.1,0,0.3,0,0.4,0c23.4,0,42.4-19,42.4-42.4
			C194.9,164.5,175.9,145.5,152.5,145.5z"/>
		<path fill="#D1EBFA" d="M182,187.9c0-16.2-13.2-29.4-29.5-29.4c-0.1,0-0.3,0-0.4,0v58.9c0.1,0,0.3,0,0.4,0
			C168.8,217.4,182,204.2,182,187.9z"/>
	</g>
</g>
</svg>
