<?xml version="1.0" encoding="UTF-8" standalone="no"?>
<svg width="138px" height="138px" viewBox="0 0 138 138" version="1.1" xmlns="http://www.w3.org/2000/svg" xmlns:xlink="http://www.w3.org/1999/xlink">
    <!-- Generator: Sketch 39 (31667) - http://www.bohemiancoding.com/sketch -->
    <title>svIcon</title>
    <desc>Created with Sketch.</desc>
    <defs></defs>
    <g id="Page-1" stroke="none" stroke-width="1" fill="none" fill-rule="evenodd">
        <rect id="Rectangle" fill="#1E88E5" x="0" y="0" width="138" height="138" rx="8"></rect>
        <path d="M94.2679186,90.6009945 L109.000306,40.4936682 C109.790553,40.3291113 110.721902,40.2468341 111.794379,40.2468341 C112.866857,40.2468341 113.854651,40.3565371 114.75779,40.5759463 L115.096466,41.0696145 L97.824012,96.7718474 C96.1306248,96.9364044 94.5924897,97.0186816 93.2095574,97.0186816 C91.8266251,97.0186816 90.7823872,96.8129885 90.0768084,96.4015963 C89.3712296,95.990204 88.7926659,95.0988675 88.3410961,93.72756 L72,40.9873365 C73.4676012,40.3291089 74.8222893,40 76.0641068,40 C77.8703859,40 79.0557386,41.0147523 79.6202003,43.0442875 L89.6957984,76.2023375 C90.598938,79.1095095 91.8971802,83.662182 93.5905674,89.8604921 C93.7034593,90.3541629 93.9292406,90.6009945 94.2679186,90.6009945 L94.2679186,90.6009945 L94.2679186,90.6009945 Z" id="Saturn-V-path" fill="#FFFFFF"></path>
        <path d="M23,91.9997211 C23.1693386,89.9701861 24.1571325,88.297216 25.9634112,86.9807607 C31.7209246,90.7655695 37.365461,92.6579455 42.8971896,92.6579455 C46.9048705,92.6579455 50.0658109,91.8351733 52.3801055,90.1896043 C54.6944,88.5440352 55.85153,86.2951245 55.85153,83.442805 C55.85153,79.2191779 52.8599257,75.8183861 46.8766275,73.2403281 L36.9703672,69.044148 C29.3501288,65.8627145 25.5400668,61.2551904 25.5400668,55.2214374 C25.5400668,53.1370499 25.9916297,51.1623967 26.894769,49.2974185 C27.7979084,47.4324403 29.0538177,45.8143217 30.6625347,44.4430141 C32.2712517,43.0717066 34.2045054,41.9883899 36.4623538,41.1930316 C38.7202022,40.3976732 41.2320209,40 43.9978852,40 C49.4731675,40 55.0612586,41.3164355 60.7623258,43.9493459 C60.7623258,46.0885856 59.8874226,47.8438329 58.1375901,49.2151405 C55.3717258,47.8438329 52.8175732,46.8565063 50.4750554,46.253131 C48.1325376,45.6497557 45.9735025,45.3480726 43.9978852,45.3480726 C42.1916065,45.3480726 40.5688023,45.5949042 39.1294239,46.0885749 C37.6900455,46.5822456 36.4482475,47.2267505 35.4039927,48.0221089 C34.3597378,48.8174672 33.5553913,49.7499424 32.9909292,50.8195622 C32.4264671,51.8891821 32.1442403,52.9999245 32.1442403,54.1518228 C32.1442403,56.5653241 32.8639187,58.4439872 34.3032971,59.7878686 C35.7426754,61.1317498 37.7605972,62.3247695 40.3571228,63.3669633 L49.9247076,67.3985872 C58.335193,70.9639868 62.5403725,75.9280456 62.5403725,82.2909124 C62.5403725,87.0630625 60.8752343,90.902666 57.5449079,93.809838 C54.2145814,96.71701 49.0498308,98.1705741 42.0505007,98.1705741 C35.164063,98.1705741 28.8139596,96.1136437 23,91.9997211 L23,91.9997211 L23,91.9997211 Z" id="Saturn-V-path" fill="#FFFFFF"></path>
    </g>
</svg>