<?xml version="1.0" encoding="utf-8"?>
<!-- Generator: Adobe Illustrator 18.0.0, SVG Export Plug-In . SVG Version: 6.00 Build 0)  -->
<!DOCTYPE svg PUBLIC "-//W3C//DTD SVG 1.1//EN" "http://www.w3.org/Graphics/SVG/1.1/DTD/svg11.dtd" [
	<!ENTITY ns_extend "http://ns.adobe.com/Extensibility/1.0/">
	<!ENTITY ns_ai "http://ns.adobe.com/AdobeIllustrator/10.0/">
	<!ENTITY ns_graphs "http://ns.adobe.com/Graphs/1.0/">
	<!ENTITY ns_vars "http://ns.adobe.com/Variables/1.0/">
	<!ENTITY ns_imrep "http://ns.adobe.com/ImageReplacement/1.0/">
	<!ENTITY ns_sfw "http://ns.adobe.com/SaveForWeb/1.0/">
	<!ENTITY ns_custom "http://ns.adobe.com/GenericCustomNamespace/1.0/">
	<!ENTITY ns_adobe_xpath "http://ns.adobe.com/XPath/1.0/">
]>
<svg version="1.1" id="Layer_1" xmlns:x="&ns_extend;" xmlns:i="&ns_ai;" xmlns:graph="&ns_graphs;"
	 xmlns="http://www.w3.org/2000/svg" xmlns:xlink="http://www.w3.org/1999/xlink" x="0px" y="0px" viewBox="0 0 340 340"
	 enable-background="new 0 0 340 340" xml:space="preserve">
<metadata>
	<sfw  xmlns="&ns_sfw;">
		<slices></slices>
		<sliceSourceBounds  width="340" height="340" bottomLeftOrigin="true" x="0" y="-340"></sliceSourceBounds>
		<optimizationSettings>
			<targetSettings  fileFormat="PNG24Format" targetSettingsID="0">
				<PNG24Format  transparency="true" interlaced="true" filtered="false" matteColor="#FFFFFF" noMatteColor="false">
					</PNG24Format>
			</targetSettings>
		</optimizationSettings>
	</sfw>
</metadata>
<g>
	<rect fill="#174780" width="340" height="170"/>
	<path fill="#A3DDF2" d="M93.3,42.1C75,42.2,57.8,50.3,57.9,68.5l0,0C58,91.6,90.5,89,90.6,104.6l0,0c0.1,9.3-8.9,13.5-18.1,13.6
		l0,0c-8.2,0.1-16-2.7-23.4-5.8l0,0l-4.8,14.8c8.6,2.8,18,4.8,27.2,4.7l0,0c20.9-0.1,39.1-7.9,39-29.2l0,0
		c-0.1-24.1-32.6-23.1-32.7-36.9l0,0c-0.1-7.4,9.1-10,16-10.1l0,0c7,0,14.2,1.8,19.8,4.4l0,0l4.4-14.3c-7.6-2.7-16-3.7-24.2-3.7l0,0
		C93.7,42.1,93.5,42.1,93.3,42.1z"/>
	<path fill="#1DA9E1" d="M188.7,43.6l-30.8,36.5l-14.4-36.3L123.3,44L146,94.6l-8.1,35.9l19.1-0.1l8.1-35.9l45.9-51L188.7,43.6
		L188.7,43.6z"/>
	<path fill="#6BCEEF" d="M277.7,43.5l-15.2,65.9h-0.3l-20.7-65.7l-24.2,0.1l-20,86.7l18.3-0.1L230.4,64h0.3l20.2,66.3l24.6-0.1
		l20.2-86.7L277.7,43.5L277.7,43.5z"/>
</g>
<polygon fill="#1DA9E1" points="0,170 340,170 340,170 340,340 340,340 0,340 0,340 0,170 "/>
<g>
	<path fill="#FFFFFF" d="M63,215.3h53.2v9.1H95.4v81.7H83.8v-81.7H63V215.3z"/>
	<path fill="#FFFFFF" d="M160.9,297.3h32.4v9.1h-34.1c-5.5,0-10-4.5-10-10v-70.8c0-5.5,4.5-10,10-10h34.1v9.1h-32.4v29.8h28.5v9.1
		h-28.5V297.3z"/>
	<path fill="#FFFFFF" d="M257.5,307.7c-4.6,0-8.6-0.7-12.1-2.2s-6.5-4-9-7.5s-4.3-8.3-5.6-14.3c-1.3-6-1.9-13.6-1.9-22.6
		s0.6-16.6,1.9-22.6c1.3-6,3-10.8,5.4-14.3c2.3-3.5,5.2-6.1,8.6-7.5c3.4-1.5,7.2-2.2,11.4-2.2c3.9,0,7.6,0.3,11.2,0.8
		s6.3,1.1,8.3,1.8v5.8h-16.9c-2.6,0-5,0.6-7.2,1.7s-4.1,3.1-5.8,6c-1.6,2.9-2.9,6.8-3.8,11.7c-0.9,4.9-1.4,11.2-1.4,18.8
		s0.5,13.9,1.4,18.8s2.3,8.8,4,11.7s3.7,4.9,6.1,6c2.4,1.1,5,1.7,8,1.7H277v5.8c-2,0.7-4.8,1.3-8.3,1.8S261.4,307.7,257.5,307.7z"/>
</g>
</svg>
