<?xml version="1.0" encoding="UTF-8" standalone="no"?>
<svg width="20px" height="20px" viewBox="0 0 20 20" version="1.1" xmlns="http://www.w3.org/2000/svg" xmlns:xlink="http://www.w3.org/1999/xlink" xmlns:sketch="http://www.bohemiancoding.com/sketch/ns">
    <!-- Generator: Sketch 3.2.2 (9983) - http://www.bohemiancoding.com/sketch -->
    <title>Untitled</title>
    <desc>Created with Sketch.</desc>
    <defs></defs>
    <g id="Page-1" stroke="none" stroke-width="1" fill="none" fill-rule="evenodd" sketch:type="MSPage">
        <g id="ic_grid_on_24px" sketch:type="MSLayerGroup">
            <path d="M18,0 L2,0 C0.9,0 0,0.9 0,2 L0,18 C0,19.1 0.9,20 2,20 L18,20 C19.1,20 20,19.1 20,18 L20,2 C20,0.9 19.1,0 18,0 L18,0 Z" id="Shape" fill="#90A4AE" sketch:type="MSShapeGroup"></path>
            <rect id="Rectangle-path" fill="#BBDEFB" sketch:type="MSShapeGroup" x="2" y="14" width="4" height="4"></rect>
            <rect id="Rectangle-path" fill="#BBDEFB" sketch:type="MSShapeGroup" x="2" y="8" width="4" height="4"></rect>
            <rect id="Rectangle-path" fill="#BBDEFB" sketch:type="MSShapeGroup" x="2" y="2" width="4" height="4"></rect>
            <rect id="Rectangle-path" fill="#BBDEFB" sketch:type="MSShapeGroup" x="8" y="14" width="4" height="4"></rect>
            <rect id="Rectangle-path" fill="#BBDEFB" sketch:type="MSShapeGroup" x="8" y="8" width="4" height="4"></rect>
            <rect id="Rectangle-path" fill="#BBDEFB" sketch:type="MSShapeGroup" x="8" y="2" width="4" height="4"></rect>
            <rect id="Rectangle-path" fill="#BBDEFB" sketch:type="MSShapeGroup" x="14" y="14" width="4" height="4"></rect>
            <rect id="Rectangle-path" fill="#BBDEFB" sketch:type="MSShapeGroup" x="14" y="8" width="4" height="4"></rect>
            <rect id="Rectangle-path" fill="#BBDEFB" sketch:type="MSShapeGroup" x="14" y="2" width="4" height="4"></rect>
        </g>
    </g>
</svg>